<svg width="103" height="58" viewBox="0 0 103 58" fill="none" xmlns="http://www.w3.org/2000/svg">
<g clip-path="url(#clip0_1_240)">
<path d="M44.2855 0.422852C44.2855 0.422852 40.0593 1.644 40.2463 5.40875C44.2714 4.30466 44.2855 0.422852 44.2855 0.422852Z" stroke="#070707" stroke-miterlimit="10"/>
<path d="M36.5739 4.06177C36.5739 4.06177 34.212 6.84472 36.4945 9.76568C38.7152 6.80105 36.5739 4.06177 36.5739 4.06177Z" stroke="#070707" stroke-miterlimit="10"/>
<path d="M39.1439 1.08667C39.1439 1.08667 36.6215 3.4189 38.3995 6.35559C40.8125 3.84167 39.1439 1.08667 39.1439 1.08667Z" stroke="#070707" stroke-miterlimit="10"/>
<path d="M43.2026 5.74062C43.2026 5.74062 38.9587 5.42442 37.925 8.77864C41.9467 9.12978 43.2026 5.74062 43.2026 5.74062Z" stroke="#070707" stroke-miterlimit="10"/>
<path d="M39.375 9.49316C39.375 9.49316 35.6867 11.055 36.2864 14.3376C39.8053 12.9015 39.375 9.49316 39.375 9.49316Z" stroke="#070707" stroke-miterlimit="10"/>
<path d="M35.4185 12.1642C36.177 8.47104 33.383 7.05249 33.383 7.05249C33.383 7.05249 32.3335 10.826 35.4185 12.1642Z" stroke="#070707" stroke-miterlimit="10"/>
<path d="M32.0725 15.7422C32.0725 15.7422 32.9791 19.6118 36.3482 19.5995C35.5368 15.9169 32.0725 15.7422 32.0725 15.7422Z" stroke="#070707" stroke-miterlimit="10"/>
<path d="M38.8864 23.3643C37.9233 19.7183 34.0481 20.2913 34.0481 20.2913C34.0481 20.2913 35.0059 23.546 38.8864 23.3643Z" stroke="#070707" stroke-miterlimit="10"/>
<path d="M40.4121 26.0265C38.1014 23.0322 34.8894 24.3267 34.8894 24.3267C34.8894 24.3267 37.3677 27.4503 40.4121 26.0265Z" stroke="#070707" stroke-miterlimit="10"/>
<path d="M41.8868 25.8205C42.774 22.1553 39.7331 20.5044 39.7331 20.5044C39.7331 20.5044 38.8494 24.3792 41.8868 25.8205Z" stroke="#070707" stroke-miterlimit="10"/>
<path d="M47.6722 28.427C46.8221 24.7531 43.1497 24.4194 43.1497 24.4194C43.1497 24.4194 44.305 28.4724 47.6722 28.427Z" stroke="#070707" stroke-miterlimit="10"/>
<path d="M37.5618 28.039C37.5618 28.039 40.772 30.1686 43.9029 27.6757C40.8955 25.6107 37.5618 28.039 37.5618 28.039Z" stroke="#070707" stroke-miterlimit="10"/>
<path d="M38.0837 20.6755C39.9552 17.3946 37.4911 14.9768 37.4911 14.9768C37.4911 14.9768 35.5649 18.4603 38.0837 20.6755Z" stroke="#070707" stroke-miterlimit="10"/>
<path d="M35.6568 16.4582C36.0696 12.7127 32.8417 11.4531 32.8417 11.4531C32.8417 11.4531 32.4589 15.4066 35.6568 16.4582Z" stroke="#070707" stroke-miterlimit="10"/>
<path d="M54.7455 33.5595C52.426 29.6812 47.3989 29.7511 47.3989 29.7511L48.8577 30.0166C53.3238 31.208 54.077 33.846 54.077 33.846C54.077 33.846 54.8795 34.0102 54.7437 33.5595H54.7455Z" stroke="#070707" stroke-miterlimit="10"/>
<path d="M41.116 29.9992C46.0354 32.6581 47.3989 29.7511 47.3989 29.7511C47.3989 29.7511 45.1076 27.1446 41.116 29.9992Z" stroke="#070707" stroke-miterlimit="10"/>
<path d="M58.7161 0.349365C58.7161 0.349365 62.9423 1.57051 62.7553 5.33527C58.7302 4.23117 58.7161 0.349365 58.7161 0.349365Z" stroke="#070707" stroke-miterlimit="10"/>
<path d="M66.4259 3.98999C66.4259 3.98999 68.7878 6.77294 66.5053 9.69391C64.2846 6.72927 66.4259 3.98999 66.4259 3.98999Z" stroke="#070707" stroke-miterlimit="10"/>
<path d="M63.8577 1.01489C63.8577 1.01489 66.38 3.34712 64.6021 6.28381C62.1891 3.76989 63.8577 1.01489 63.8577 1.01489Z" stroke="#070707" stroke-miterlimit="10"/>
<path d="M59.7971 5.66714C59.7971 5.66714 64.041 5.35093 65.0746 8.70515C61.053 9.05629 59.7971 5.66714 59.7971 5.66714Z" stroke="#070707" stroke-miterlimit="10"/>
<path d="M63.6248 9.41968C63.6248 9.41968 67.3131 10.9815 66.7133 14.2641C63.1944 12.8281 63.6248 9.41968 63.6248 9.41968Z" stroke="#070707" stroke-miterlimit="10"/>
<path d="M67.5829 12.0909C66.8245 8.3978 69.6185 6.97925 69.6185 6.97925C69.6185 6.97925 70.668 10.7527 67.5829 12.0909Z" stroke="#070707" stroke-miterlimit="10"/>
<path d="M70.929 15.6687C70.929 15.6687 70.0223 19.5383 66.6533 19.526C67.4647 15.8434 70.929 15.6687 70.929 15.6687Z" stroke="#070707" stroke-miterlimit="10"/>
<path d="M64.1135 23.2908C65.0766 19.6448 68.9518 20.2178 68.9518 20.2178C68.9518 20.2178 67.9941 23.4725 64.1135 23.2908Z" stroke="#070707" stroke-miterlimit="10"/>
<path d="M62.5894 25.9533C64.9 22.9589 68.1121 24.2534 68.1121 24.2534C68.1121 24.2534 65.6338 27.3771 62.5894 25.9533Z" stroke="#070707" stroke-miterlimit="10"/>
<path d="M61.1132 25.7487C60.2259 22.0835 63.2669 20.4326 63.2669 20.4326C63.2669 20.4326 64.1506 24.3074 61.1132 25.7487Z" stroke="#070707" stroke-miterlimit="10"/>
<path d="M55.3276 28.3535C56.1778 24.6796 59.8502 24.3459 59.8502 24.3459C59.8502 24.3459 58.6949 28.399 55.3276 28.3535Z" stroke="#070707" stroke-miterlimit="10"/>
<path d="M65.4381 27.9675C65.4381 27.9675 62.2278 30.0971 59.0969 27.6041C62.1043 25.5392 65.4381 27.9675 65.4381 27.9675Z" stroke="#070707" stroke-miterlimit="10"/>
<path d="M64.9161 20.6022C63.0446 17.3214 65.5088 14.9036 65.5088 14.9036C65.5088 14.9036 67.4349 18.3871 64.9161 20.6022Z" stroke="#070707" stroke-miterlimit="10"/>
<path d="M67.3448 16.385C66.9321 12.6395 70.16 11.3799 70.16 11.3799C70.16 11.3799 70.5427 15.3333 67.3448 16.385Z" stroke="#070707" stroke-miterlimit="10"/>
<path d="M48.2561 33.4863C50.5756 29.6079 55.6027 29.6778 55.6027 29.6778L54.144 29.9434C49.6778 31.1348 48.9247 33.7728 48.9247 33.7728C48.9247 33.7728 48.1221 33.937 48.2579 33.4863H48.2561Z" stroke="#070707" stroke-miterlimit="10"/>
<path d="M61.8857 29.9277C56.9663 32.5866 55.6028 29.6796 55.6028 29.6796C55.6028 29.6796 57.8941 27.0731 61.8857 29.9277Z" stroke="#070707" stroke-miterlimit="10"/>
<path d="M7.28311 45.7606C7.16141 45.7606 7.04675 45.724 6.93739 45.6506C6.8298 45.5772 6.71338 45.4479 6.59167 45.2627C6.46997 45.0776 6.33062 44.826 6.1754 44.5028L3.68656 39.5326C3.67951 39.5117 3.65305 39.5029 3.60543 39.5029C3.5578 39.5029 3.52781 39.5134 3.5137 39.5326L1.33002 44.412C1.1748 44.7666 1.03192 45.0444 0.903161 45.2418C0.774398 45.4392 0.643871 45.5755 0.51158 45.6488C0.379289 45.7222 0.222304 45.7589 0.0388603 45.7589C0.0124021 45.7589 -0.00170898 45.7781 -0.00170898 45.82C-0.00170898 45.862 0.0124021 45.8812 0.0388603 45.8812C0.262873 45.8812 0.449844 45.8742 0.603302 45.862C0.756759 45.8497 0.959606 45.841 1.21713 45.841C1.47466 45.841 1.68809 45.848 1.85742 45.862C2.02675 45.8759 2.21372 45.8812 2.41657 45.8812C2.45008 45.8812 2.46772 45.862 2.46772 45.82C2.46772 45.7781 2.45008 45.7589 2.41657 45.7589C2.01617 45.7589 1.73395 45.6523 1.56814 45.4374C1.40234 45.2226 1.40763 44.9116 1.58402 44.5011L2.36365 42.7611H4.20691L5.30051 44.964C5.46279 45.2802 5.51394 45.4899 5.45221 45.5982C5.39047 45.7065 5.20879 45.7589 4.90364 45.7589C4.87718 45.7589 4.86307 45.7781 4.86307 45.82C4.86307 45.862 4.87718 45.8812 4.90364 45.8812C5.10649 45.8812 5.29169 45.8742 5.4575 45.862C5.6233 45.848 5.81733 45.841 6.04134 45.841C6.23713 45.841 6.44174 45.848 6.65517 45.862C6.8686 45.8759 7.07674 45.8812 7.27959 45.8812C7.30604 45.8812 7.32016 45.862 7.32016 45.82C7.32016 45.7781 7.30604 45.7589 7.27959 45.7589L7.28311 45.7606ZM2.48183 42.5008L3.23854 40.8114L4.07815 42.5008H2.48183Z" fill="#070707"/>
<path d="M11.1389 42.8117C10.9061 42.637 10.6592 42.4728 10.4016 42.3191C10.1653 42.1723 9.93949 42.0203 9.72606 41.8666C9.51263 41.7129 9.33801 41.5399 9.20219 41.3478C9.06637 41.1573 8.99934 40.9302 8.99934 40.6682C8.99934 40.4603 9.03991 40.2838 9.12105 40.1406C9.20219 39.9973 9.31684 39.8838 9.46677 39.8034C9.61494 39.7231 9.79133 39.6829 9.99417 39.6829C10.2588 39.6829 10.481 39.7475 10.6644 39.8733C10.8479 39.9991 10.9996 40.1546 11.1213 40.3362C11.243 40.5179 11.3383 40.6961 11.4053 40.8743C11.4723 41.0525 11.5235 41.1905 11.557 41.2919C11.5711 41.3111 11.5922 41.3181 11.6222 41.3111C11.6522 41.3041 11.6681 41.2884 11.6681 41.2604L11.6469 39.903C11.6469 39.8628 11.6363 39.8261 11.6169 39.7929C11.5958 39.7597 11.5552 39.7318 11.4952 39.7126C11.333 39.6392 11.1354 39.5815 10.9061 39.5414C10.675 39.5012 10.4493 39.4802 10.2252 39.4802C9.89363 39.4802 9.57084 39.5379 9.25511 39.6514C8.93937 39.765 8.68185 39.9397 8.47724 40.1755C8.27263 40.4114 8.17209 40.7118 8.17209 41.0805C8.17209 41.3827 8.24088 41.6395 8.38022 41.8491C8.51957 42.0605 8.69596 42.2475 8.91291 42.4082C9.12987 42.5689 9.35565 42.7261 9.59377 42.8816C9.83719 43.0301 10.0718 43.1873 10.294 43.355C10.5163 43.5228 10.7015 43.7184 10.8479 43.9438C10.9943 44.1691 11.0666 44.4382 11.0666 44.7544C11.0666 45.0164 11.0155 45.2226 10.9149 45.3728C10.8144 45.5231 10.6838 45.6296 10.5286 45.689C10.3734 45.7502 10.2076 45.7799 10.0312 45.7799C9.78074 45.7799 9.55849 45.7205 9.36623 45.6034C9.17397 45.4864 9.00287 45.3326 8.85294 45.1457C8.70478 44.9588 8.57425 44.7526 8.46136 44.5273C8.35024 44.3019 8.25322 44.0888 8.17209 43.8879C8.16503 43.8617 8.14386 43.8494 8.10682 43.8529C8.06978 43.8564 8.05391 43.8739 8.06096 43.9088L8.1227 45.4287C8.12975 45.4829 8.1421 45.5231 8.15797 45.5493C8.17561 45.5755 8.19678 45.5999 8.22324 45.6191C8.33083 45.6855 8.47194 45.7502 8.6448 45.8096C8.81766 45.8707 9.00287 45.9161 9.20395 45.9511C9.40327 45.9843 9.59554 46.0017 9.77722 46.0017C10.2111 46.0017 10.5886 45.9266 10.9096 45.7746C11.2307 45.6244 11.4829 45.4165 11.6663 45.1509C11.8498 44.8854 11.9397 44.5797 11.9397 44.2303C11.9397 43.9088 11.8639 43.6346 11.7104 43.4109C11.5587 43.1856 11.3647 42.9864 11.1319 42.8117H11.1389Z" fill="#070707"/>
<path d="M18.6089 39.302C18.5754 39.302 18.5542 39.316 18.5472 39.3422C18.5136 39.4488 18.4343 39.5187 18.309 39.5484C18.1838 39.5781 17.9986 39.5938 17.7552 39.5938C17.4906 39.5938 17.219 39.599 16.9367 39.6095C16.6563 39.62 16.2753 39.6252 15.7937 39.6252C15.0141 39.6252 14.335 39.6147 13.7529 39.5955C13.6912 39.5955 13.6171 39.5903 13.5289 39.5798C13.4407 39.5693 13.3613 39.5501 13.2908 39.5187C13.2202 39.4872 13.185 39.4401 13.185 39.3737C13.185 39.3405 13.1656 39.323 13.1285 39.323C13.0915 39.323 13.0721 39.3405 13.0721 39.3737C13.0721 39.4872 13.0668 39.6375 13.0562 39.8209C13.0456 40.0061 13.0333 40.1948 13.0156 40.3887C12.998 40.5826 12.9839 40.7625 12.9698 40.9267C12.9557 41.091 12.9433 41.2202 12.9292 41.3146C12.9292 41.3285 12.9486 41.3355 12.9856 41.339C13.0227 41.3425 13.0421 41.3338 13.0421 41.3146C13.1903 40.8184 13.3966 40.4428 13.6559 40.1878C13.917 39.9327 14.2539 39.8052 14.6666 39.8052C14.8501 39.8052 14.9876 39.8226 15.0829 39.8558C15.1781 39.889 15.2399 39.9484 15.2716 40.0323C15.3016 40.1161 15.3175 40.2419 15.3175 40.4096V45.0671C15.3175 45.261 15.2946 45.4095 15.2522 45.5091C15.2081 45.6104 15.1217 45.6768 14.9929 45.71C14.8642 45.7432 14.6719 45.7607 14.4144 45.7607C14.4003 45.7607 14.3932 45.7799 14.3932 45.8218C14.3932 45.8637 14.4003 45.8829 14.4144 45.8829C14.6102 45.8829 14.8236 45.8794 15.0547 45.8725C15.284 45.8655 15.5327 45.862 15.7955 45.862C16.0724 45.862 16.3282 45.8655 16.5628 45.8725C16.7956 45.8794 17.0038 45.8829 17.1872 45.8829C17.2084 45.8829 17.2172 45.8637 17.2172 45.8218C17.2172 45.7799 17.2066 45.7607 17.1872 45.7607C16.9297 45.7607 16.7392 45.7432 16.6139 45.71C16.4887 45.6768 16.404 45.6087 16.3599 45.5091C16.3158 45.4078 16.2947 45.261 16.2947 45.0671V40.4288C16.2947 40.2611 16.3123 40.1319 16.3458 40.041C16.3793 39.9502 16.4446 39.889 16.5381 39.8541C16.6333 39.8209 16.7709 39.8034 16.9544 39.8034C17.3742 39.8034 17.7093 39.9222 17.9598 40.1598C18.2103 40.3974 18.3725 40.7817 18.4466 41.3111C18.4537 41.3251 18.4748 41.332 18.5119 41.332C18.5489 41.332 18.5683 41.3251 18.5683 41.3111C18.5683 41.2237 18.5719 41.0944 18.5789 40.9232C18.586 40.752 18.593 40.5651 18.6001 40.3607C18.6071 40.1563 18.6177 39.9624 18.6301 39.7772C18.6442 39.592 18.653 39.447 18.66 39.3405C18.66 39.3143 18.6424 39.3003 18.6089 39.3003V39.302Z" fill="#070707"/>
<path d="M25.3187 45.4287C25.0171 45.2068 24.6714 44.8452 24.2833 44.3421C23.9076 43.8581 23.4579 43.2118 22.9357 42.4099C23.0627 42.3365 23.1827 42.2544 23.2938 42.1583C23.4967 41.9836 23.6589 41.7827 23.7806 41.5539C23.9024 41.3268 23.9641 41.0839 23.9641 40.8289C23.9641 40.4323 23.8018 40.1231 23.4773 39.8977C23.1527 39.6724 22.6888 39.5605 22.0856 39.5605C21.8827 39.5605 21.6622 39.571 21.4259 39.5902C21.1895 39.6095 20.9725 39.6199 20.775 39.6199C20.5386 39.6199 20.3129 39.6147 20.0994 39.6042C19.886 39.5937 19.6955 39.5885 19.5262 39.5885C19.5121 39.5885 19.505 39.6077 19.505 39.6496C19.505 39.6916 19.5121 39.7108 19.5262 39.7108C19.7502 39.7108 19.916 39.73 20.0236 39.7667C20.1312 39.8034 20.2053 39.8715 20.2423 39.9676C20.2793 40.0654 20.2987 40.2104 20.2987 40.4043V45.0618C20.2987 45.2557 20.2776 45.4042 20.237 45.5038C20.1964 45.6051 20.1224 45.6715 20.013 45.7047C19.9036 45.7379 19.7396 45.7554 19.5156 45.7554C19.4944 45.7554 19.4856 45.7746 19.4856 45.8165C19.4856 45.8584 19.4962 45.8777 19.5156 45.8777C19.6849 45.8777 19.8772 45.8742 20.0941 45.8672C20.3111 45.8602 20.5369 45.8567 20.775 45.8567C21.0255 45.8567 21.2565 45.8602 21.4664 45.8672C21.6763 45.8742 21.8651 45.8777 22.0344 45.8777C22.0556 45.8777 22.0644 45.8584 22.0644 45.8165C22.0644 45.7746 22.0538 45.7554 22.0344 45.7554C21.8174 45.7554 21.6534 45.7379 21.5423 45.7047C21.4312 45.6715 21.3571 45.6034 21.3236 45.5038C21.29 45.4025 21.2724 45.2557 21.2724 45.0618V42.7069C21.3465 42.7139 21.4312 42.7174 21.5264 42.7174H21.791C21.9092 42.7174 22.0238 42.7069 22.1385 42.6877C22.5212 43.3253 22.8722 43.8791 23.188 44.3421C23.5231 44.8347 23.8089 45.2138 24.047 45.4793C24.2833 45.7449 24.4527 45.8759 24.555 45.8759H26.1901C26.2042 45.8759 26.2095 45.8567 26.2095 45.8148C26.2095 45.7728 26.2024 45.7536 26.1901 45.7536C25.9132 45.7536 25.6221 45.6436 25.3223 45.4217L25.3187 45.4287ZM21.5758 42.4605C21.4682 42.4536 21.3659 42.4431 21.2706 42.4308V40.4288C21.2706 40.2471 21.2918 40.1091 21.3324 40.0113C21.3729 39.9134 21.44 39.8471 21.5352 39.8104C21.6305 39.7737 21.7557 39.7545 21.9109 39.7545C22.1138 39.7545 22.2937 39.7946 22.4489 39.875C22.6041 39.9554 22.7276 40.1021 22.8193 40.3118C22.911 40.5214 22.9569 40.8201 22.9569 41.2027C22.9569 41.6849 22.874 42.0168 22.7082 42.1985C22.5424 42.3802 22.2602 42.4693 21.8598 42.4693C21.7786 42.4693 21.6834 42.4658 21.5758 42.4588V42.4605Z" fill="#070707"/>
<path d="M32.0745 39.6078C31.9017 39.6183 31.727 39.6235 31.5506 39.6235C31.3478 39.6235 31.1591 39.6183 30.9862 39.6078C30.8133 39.5973 30.6422 39.5921 30.4729 39.5921C30.4588 39.5921 30.4517 39.6113 30.4517 39.6532C30.4517 39.6952 30.4588 39.7144 30.4729 39.7144C30.771 39.7144 30.9986 39.8122 31.1591 40.0061C31.3178 40.2 31.3972 40.4726 31.3972 40.8202V43.6468C31.3972 44.2897 31.2349 44.7894 30.9104 45.1405C30.5858 45.4917 30.1343 45.6681 29.5592 45.6681C28.9842 45.6681 28.5044 45.4777 28.1622 45.0951C27.82 44.7125 27.6489 44.1133 27.6489 43.2939V40.4271C27.6489 40.2332 27.6683 40.0847 27.7054 39.9852C27.7424 39.8838 27.8147 39.8139 27.9241 39.7738C28.0317 39.7336 28.1975 39.7126 28.4215 39.7126C28.4427 39.7126 28.4515 39.6934 28.4515 39.6515C28.4515 39.6095 28.4409 39.5903 28.4215 39.5903C28.2522 39.5903 28.0617 39.5956 27.8536 39.6061C27.6437 39.6165 27.4126 39.6218 27.1621 39.6218C26.9258 39.6218 26.7 39.6165 26.4865 39.6061C26.2731 39.5956 26.0826 39.5903 25.9133 39.5903C25.8939 39.5903 25.8833 39.6095 25.8833 39.6515C25.8833 39.6934 25.8939 39.7126 25.9133 39.7126C26.1302 39.7126 26.2943 39.7318 26.4054 39.7685C26.5165 39.8052 26.5924 39.8733 26.6294 39.9694C26.6665 40.0673 26.6859 40.2123 26.6859 40.4062V43.6451C26.6859 44.1342 26.7917 44.557 27.0051 44.9134C27.2186 45.268 27.5184 45.5423 27.9047 45.7327C28.291 45.9232 28.7302 46.0193 29.2259 46.0193C29.7215 46.0193 30.1642 45.9214 30.5364 45.7275C30.9086 45.5336 31.1979 45.2576 31.4042 44.9029C31.6106 44.5483 31.7147 44.1255 31.7147 43.6346V40.8185C31.7147 40.4691 31.7852 40.1983 31.9281 40.0044C32.071 39.8105 32.2774 39.7126 32.5472 39.7126C32.5613 39.7126 32.5666 39.6934 32.5666 39.6515C32.5666 39.6095 32.5596 39.5903 32.5472 39.5903C32.4044 39.5903 32.2474 39.5956 32.0745 39.6061V39.6078Z" fill="#070707"/>
<path d="M41.1601 45.7607C40.9432 45.7607 40.7791 45.7432 40.668 45.71C40.5569 45.6768 40.4811 45.6087 40.444 45.5091C40.407 45.4078 40.3805 45.2611 40.3682 45.0671L40.1442 40.4691C40.13 40.1948 40.1988 39.9991 40.347 39.8856C40.4952 39.772 40.7262 39.7144 41.0384 39.7144C41.0578 39.7144 41.0684 39.6952 41.0684 39.6532C41.0684 39.6113 41.0578 39.5921 41.0384 39.5921C40.9026 39.5921 40.765 39.5956 40.6222 39.6026C40.4793 39.6096 40.3064 39.613 40.1036 39.613C40.0013 39.613 39.9148 39.6096 39.8443 39.6026C39.7737 39.5956 39.7067 39.5921 39.6467 39.5921C39.5797 39.5921 39.5215 39.6113 39.4739 39.6532C39.4263 39.6934 39.3822 39.758 39.3416 39.8436L37.3167 44.447L35.0853 40.1144C34.9707 39.8926 34.8878 39.7511 34.8366 39.6864C34.7855 39.6235 34.7132 39.5903 34.6179 39.5903C34.5509 39.5903 34.4574 39.5938 34.3392 39.6008C34.221 39.6078 34.087 39.6113 33.9388 39.6113C33.8365 39.6113 33.713 39.6078 33.5684 39.6008C33.422 39.5938 33.2862 39.5903 33.1574 39.5903C33.1363 39.5903 33.1274 39.6095 33.1274 39.6515C33.1274 39.6934 33.138 39.7126 33.1574 39.7126C33.5243 39.7126 33.8242 39.9223 34.0605 40.3363L33.9706 44.6618C33.9635 45.0165 33.8841 45.289 33.7325 45.4759C33.5808 45.6646 33.3656 45.7572 33.0869 45.7572C33.0675 45.7572 33.0569 45.7764 33.0569 45.8183C33.0569 45.8603 33.0675 45.8795 33.0869 45.8795C33.235 45.8795 33.3938 45.876 33.5596 45.869C33.7254 45.862 33.9106 45.8585 34.1134 45.8585C34.3163 45.8585 34.4856 45.862 34.6408 45.869C34.7961 45.876 34.9495 45.8795 35.0977 45.8795C35.1171 45.8795 35.1277 45.8603 35.1277 45.8183C35.1277 45.7764 35.1171 45.7572 35.0977 45.7572C34.8067 45.7572 34.5879 45.6629 34.4433 45.4759C34.2969 45.289 34.2281 45.0165 34.2352 44.6618L34.3233 40.8377L36.8651 45.8079C36.8792 45.8341 36.9092 45.848 36.9568 45.848C37.0044 45.848 37.0309 45.8341 37.038 45.8079L39.2058 40.7748L39.4051 45.0619C39.4263 45.3502 39.3874 45.5388 39.294 45.6244C39.1987 45.7118 38.9888 45.7555 38.6643 45.7555C38.6501 45.7555 38.6431 45.7747 38.6431 45.8166C38.6431 45.8585 38.6501 45.8777 38.6643 45.8777C38.8336 45.8777 39.0206 45.8742 39.2287 45.8673C39.4351 45.8603 39.6573 45.8568 39.8937 45.8568C40.13 45.8568 40.3576 45.8603 40.5745 45.8673C40.7915 45.8742 40.9873 45.8777 41.1637 45.8777C41.1778 45.8777 41.1848 45.8585 41.1848 45.8166C41.1848 45.7747 41.1778 45.7555 41.1637 45.7555L41.1601 45.7607Z" fill="#070707"/>
<path d="M49.1541 44.1308C49.1206 44.1238 49.0994 44.1308 49.0924 44.1517C48.9848 44.5937 48.7643 44.9501 48.4327 45.2174C48.1011 45.4864 47.6954 45.6192 47.2138 45.6192H46.6035C46.4201 45.6192 46.2825 45.6052 46.1873 45.579C46.092 45.5528 46.0285 45.4952 45.995 45.4078C45.9615 45.3205 45.9438 45.1929 45.9438 45.0252V40.4167C45.9438 40.2227 45.9632 40.0742 46.0003 39.9747C46.0373 39.8733 46.1114 39.8052 46.2243 39.7685C46.3354 39.7318 46.4995 39.7126 46.7164 39.7126C46.7358 39.7126 46.7464 39.6934 46.7464 39.6515C46.7464 39.6095 46.7358 39.5903 46.7164 39.5903C46.5541 39.5903 46.3654 39.5956 46.152 39.6061C45.9385 39.6165 45.7075 39.6218 45.457 39.6218C45.2206 39.6218 44.9931 39.6165 44.7761 39.6061C44.5592 39.5956 44.3705 39.5903 44.2082 39.5903C44.1941 39.5903 44.187 39.6095 44.187 39.6515C44.187 39.6934 44.1941 39.7126 44.2082 39.7126C44.4251 39.7126 44.5892 39.7318 44.7003 39.7685C44.8114 39.8052 44.8873 39.8733 44.9243 39.9694C44.9614 40.0673 44.9808 40.2123 44.9808 40.4062V45.0636C44.9808 45.2576 44.9614 45.4061 44.9243 45.5056C44.8873 45.607 44.8132 45.6733 44.7003 45.7065C44.5892 45.7397 44.4251 45.7572 44.2082 45.7572C44.1941 45.7572 44.187 45.7764 44.187 45.8183C44.187 45.8603 44.1941 45.8795 44.2082 45.8795H48.9618C49.0641 45.8795 49.1135 45.8288 49.1135 45.7292C49.1135 45.4812 49.1241 45.2104 49.1435 44.9186C49.1647 44.6269 49.1841 44.3771 49.2052 44.1692C49.2052 44.15 49.1876 44.136 49.1541 44.129V44.1308Z" fill="#070707"/>
<path d="M54.4617 44.302C54.4247 44.295 54.4017 44.302 54.3964 44.3212C54.2747 44.751 54.0719 45.0742 53.7861 45.2925C53.5022 45.5109 53.13 45.6192 52.6696 45.6192H52.1722C52.024 45.6192 51.9076 45.6 51.8265 45.5633C51.7453 45.5266 51.6854 45.462 51.6483 45.3729C51.6113 45.2821 51.5919 45.1668 51.5919 45.0253V42.7419H52.5567C52.9359 42.7419 53.2199 42.8153 53.4104 42.9638C53.5992 43.1105 53.6944 43.3254 53.6944 43.6084C53.6944 43.6224 53.7156 43.6277 53.7562 43.6277C53.7967 43.6277 53.8179 43.6207 53.8179 43.6084C53.8179 43.4215 53.8126 43.2486 53.802 43.0896C53.7914 42.9306 53.7861 42.7734 53.7861 42.6109C53.7861 42.4834 53.7861 42.3593 53.7914 42.2388C53.795 42.1183 53.7967 41.9505 53.7967 41.7357C53.7967 41.7147 53.7773 41.706 53.7403 41.706C53.7032 41.706 53.6838 41.7165 53.6838 41.7357C53.6838 41.9768 53.5921 42.1619 53.4104 42.2895C53.227 42.417 52.9465 42.4799 52.5673 42.4799H51.5919V40.4272C51.5919 40.2857 51.613 40.1739 51.6536 40.09C51.6942 40.0062 51.763 39.9468 51.8617 39.9083C51.9605 39.8716 52.0928 39.8524 52.2621 39.8524H52.6784C53.0647 39.8524 53.3752 39.9468 53.6133 40.1337C53.8496 40.3224 54.0066 40.6071 54.0807 40.988C54.0948 41.0072 54.1177 41.0159 54.1513 41.0124C54.1848 41.0089 54.2024 41.0002 54.2024 40.988L54.183 39.6795C54.183 39.6183 54.1495 39.5886 54.0807 39.5886H49.8545C49.8333 39.5886 49.8245 39.6078 49.8245 39.6498C49.8245 39.6917 49.835 39.7109 49.8545 39.7109C50.0785 39.7109 50.2443 39.7301 50.3519 39.7668C50.4595 39.8035 50.5335 39.8716 50.5706 39.9677C50.6076 40.0656 50.627 40.2106 50.627 40.4045V45.0619C50.627 45.2559 50.6076 45.4043 50.5706 45.5039C50.5335 45.6052 50.4612 45.6716 50.3519 45.7048C50.2425 45.738 50.0785 45.7555 49.8545 45.7555C49.8333 45.7555 49.8245 45.7747 49.8245 45.8166C49.8245 45.8586 49.835 45.8778 49.8545 45.8778H54.2624C54.3647 45.8778 54.4141 45.8271 54.4141 45.7275C54.4141 45.5057 54.4247 45.2646 54.4441 45.0025C54.4635 44.7405 54.4882 44.5169 54.5146 44.3282C54.5146 44.3142 54.4952 44.3055 54.4582 44.2985L54.4617 44.302Z" fill="#070707"/>
<path d="M61.9333 43.3952C61.5276 43.4144 61.1378 43.4231 60.7656 43.4196C60.3934 43.4161 59.9807 43.4004 59.5256 43.3742C59.4921 43.3742 59.4744 43.4004 59.4744 43.4546C59.4744 43.5087 59.4938 43.5349 59.5362 43.5349C59.8678 43.5349 60.1059 43.5577 60.2523 43.6048C60.3987 43.652 60.4904 43.7498 60.531 43.9018C60.5716 44.0521 60.5927 44.2896 60.5927 44.6111C60.5927 44.9535 60.5539 45.2121 60.4763 45.385C60.3987 45.5597 60.2752 45.6768 60.1059 45.7379C59.9366 45.799 59.709 45.8287 59.4251 45.8287C58.8835 45.8287 58.4002 45.6855 57.9769 45.4007C57.5536 45.116 57.2184 44.7159 56.9715 44.204C56.7246 43.6904 56.6011 43.0999 56.6011 42.4291C56.6011 41.6115 56.7969 40.9564 57.1902 40.4672C57.5836 39.9781 58.1586 39.7335 58.9171 39.7335C59.4656 39.7335 59.9436 39.875 60.3493 40.1563C60.755 40.4375 61.0602 40.8306 61.263 41.3337C61.2771 41.3599 61.3001 41.3687 61.3336 41.3582C61.3671 41.3477 61.3847 41.3372 61.3847 41.3233L61.263 40.0148C61.256 39.9484 61.2454 39.8995 61.233 39.8698C61.2189 39.8401 61.1819 39.8104 61.1219 39.7842C60.9191 39.6828 60.6562 39.6077 60.3352 39.5571C60.0142 39.5064 59.7002 39.4819 59.3951 39.4819C58.8394 39.4819 58.3279 39.5623 57.8605 39.723C57.3931 39.8837 56.9856 40.1109 56.6364 40.4026C56.2871 40.6943 56.0172 41.0437 55.8232 41.449C55.631 41.8543 55.5339 42.3068 55.5339 42.803C55.5339 43.4004 55.6786 43.9402 55.9661 44.4224C56.2536 44.9046 56.6699 45.2889 57.2149 45.5737C57.76 45.8584 58.4144 46.0017 59.1799 46.0017C59.545 46.0017 59.926 45.9755 60.3229 45.9213C60.7197 45.8672 61.1007 45.8008 61.4659 45.7204C61.5135 45.7065 61.5452 45.6942 61.5629 45.6802C61.5805 45.6663 61.5876 45.6401 61.5876 45.5999C61.5876 45.5457 61.5823 45.4951 61.5717 45.4444C61.5611 45.3937 61.5505 45.3151 61.5364 45.2086C61.5223 45.102 61.517 44.936 61.517 44.7159C61.517 44.3613 61.5241 44.0992 61.5364 43.9315C61.5505 43.7638 61.5876 43.6555 61.6475 43.6048C61.7075 43.5542 61.8028 43.5332 61.9315 43.5402C61.965 43.5402 61.9827 43.5175 61.9827 43.4703C61.9827 43.4231 61.965 43.4004 61.9315 43.4004L61.9333 43.3952Z" fill="#070707"/>
<path d="M69.5922 45.7606C69.4705 45.7606 69.3558 45.724 69.2465 45.6506C69.1389 45.5772 69.0225 45.4479 68.9008 45.2627C68.779 45.0776 68.6397 44.826 68.4845 44.5028L65.9956 39.5326C65.9886 39.5117 65.9621 39.5029 65.9145 39.5029C65.8669 39.5029 65.8369 39.5134 65.8228 39.5326L63.6391 44.412C63.4839 44.7666 63.341 45.0444 63.2122 45.2418C63.0835 45.4392 62.953 45.5755 62.8207 45.6488C62.6884 45.7222 62.5314 45.7589 62.3479 45.7589C62.3215 45.7589 62.3074 45.7781 62.3074 45.82C62.3074 45.862 62.3215 45.8812 62.3479 45.8812C62.572 45.8812 62.7589 45.8742 62.9124 45.862C63.0658 45.8497 63.2687 45.841 63.5262 45.841C63.7837 45.841 63.9972 45.848 64.1665 45.862C64.3358 45.8759 64.5228 45.8812 64.7257 45.8812C64.7592 45.8812 64.7768 45.862 64.7768 45.82C64.7768 45.7781 64.7592 45.7589 64.7257 45.7589C64.3253 45.7589 64.043 45.6523 63.8772 45.4374C63.7114 45.2226 63.7167 44.9116 63.8931 44.5011L64.6727 42.7611H66.516L67.6096 44.964C67.7719 45.2802 67.823 45.4899 67.7613 45.5982C67.6996 45.7065 67.5179 45.7589 67.2127 45.7589C67.1863 45.7589 67.1722 45.7781 67.1722 45.82C67.1722 45.862 67.1863 45.8812 67.2127 45.8812C67.4156 45.8812 67.6008 45.8742 67.7666 45.862C67.9324 45.848 68.1264 45.841 68.3504 45.841C68.5462 45.841 68.7508 45.848 68.9643 45.862C69.1777 45.8759 69.3858 45.8812 69.5887 45.8812C69.6151 45.8812 69.6292 45.862 69.6292 45.82C69.6292 45.7781 69.6151 45.7589 69.5887 45.7589L69.5922 45.7606ZM64.7909 42.5008L65.5476 40.8114L66.3872 42.5008H64.7909Z" fill="#070707"/>
<path d="M74.9139 44.1308C74.8803 44.1238 74.8592 44.1308 74.8521 44.1517C74.7428 44.5937 74.524 44.9501 74.1924 45.2174C73.8608 45.4864 73.4534 45.6192 72.9736 45.6192H72.3633C72.1799 45.6192 72.0423 45.6052 71.947 45.579C71.8518 45.5528 71.7883 45.4952 71.7548 45.4078C71.7212 45.3205 71.7036 45.1929 71.7036 45.0252V40.4167C71.7036 40.2227 71.7212 40.0742 71.76 39.9747C71.7971 39.8733 71.8712 39.8052 71.9841 39.7685C72.0952 39.7318 72.2592 39.7126 72.4762 39.7126C72.4956 39.7126 72.5062 39.6934 72.5062 39.6515C72.5062 39.6095 72.4956 39.5903 72.4762 39.5903C72.3139 39.5903 72.1252 39.5956 71.9117 39.6061C71.6983 39.6165 71.4655 39.6218 71.2168 39.6218C70.9804 39.6218 70.7529 39.6165 70.5359 39.6061C70.319 39.5956 70.1302 39.5903 69.9662 39.5903C69.9521 39.5903 69.9468 39.6095 69.9468 39.6515C69.9468 39.6934 69.9538 39.7126 69.9662 39.7126C70.1831 39.7126 70.3472 39.7318 70.4583 39.7685C70.5694 39.8052 70.6453 39.8733 70.6823 39.9694C70.7194 40.0673 70.7388 40.2123 70.7388 40.4062V45.0636C70.7388 45.2576 70.7194 45.4061 70.6823 45.5056C70.6453 45.607 70.5712 45.6733 70.4583 45.7065C70.3472 45.7397 70.1814 45.7572 69.9662 45.7572C69.9521 45.7572 69.9468 45.7764 69.9468 45.8183C69.9468 45.8603 69.9538 45.8795 69.9662 45.8795H74.7198C74.8221 45.8795 74.8715 45.8288 74.8715 45.7292C74.8715 45.4812 74.8821 45.2104 74.9015 44.9186C74.9209 44.6269 74.9421 44.3771 74.9633 44.1692C74.9633 44.15 74.9456 44.136 74.9121 44.129L74.9139 44.1308Z" fill="#070707"/>
<path d="M76.2139 44.9343C76.0304 44.9343 75.8876 44.9797 75.7817 45.0706C75.6759 45.1614 75.6248 45.2907 75.6248 45.4584C75.6248 45.6052 75.6689 45.7275 75.757 45.8201C75.8452 45.9144 75.9705 45.9616 76.1328 45.9616C76.2033 45.9616 76.2633 45.9476 76.3162 45.9284C76.355 46.0227 76.3762 46.1642 76.3762 46.3546C76.3762 46.5887 76.348 46.8123 76.2897 47.0237C76.2315 47.2351 76.1116 47.4552 75.9299 47.6823C75.9158 47.7085 75.9193 47.733 75.9405 47.7522C75.9599 47.7732 75.9846 47.7732 76.011 47.7522C76.295 47.464 76.5208 47.167 76.6866 46.8613C76.8524 46.5555 76.9353 46.2288 76.9353 45.8812C76.9353 45.5598 76.8718 45.3204 76.7466 45.1667C76.6214 45.0129 76.4432 44.9361 76.2139 44.9361V44.9343Z" fill="#070707"/>
<path d="M84.04 39.7282C83.719 39.6182 83.3504 39.5623 82.9376 39.5623C82.6942 39.5623 82.442 39.5727 82.1809 39.592C81.9198 39.6112 81.7082 39.6217 81.5459 39.6217C81.3095 39.6217 81.0838 39.6164 80.8703 39.6059C80.6569 39.5954 80.4664 39.5902 80.2971 39.5902C80.2777 39.5902 80.2671 39.6094 80.2671 39.6514C80.2671 39.6933 80.2777 39.7125 80.2971 39.7125C80.5211 39.7125 80.6869 39.7317 80.7945 39.7684C80.9021 39.8051 80.9762 39.8732 81.0132 39.9693C81.0503 40.0671 81.0697 40.2121 81.0697 40.406V45.0635C81.0697 45.2574 81.0503 45.4059 81.0132 45.5055C80.9762 45.6068 80.9038 45.6732 80.7945 45.7064C80.6851 45.7396 80.5211 45.7571 80.2971 45.7571C80.2777 45.7571 80.2671 45.7763 80.2671 45.8182C80.2671 45.8601 80.2777 45.8794 80.2971 45.8794C80.4664 45.8794 80.6587 45.8759 80.8756 45.8689C81.0926 45.8619 81.3184 45.8584 81.5565 45.8584C81.8546 45.8584 82.1297 45.8619 82.3837 45.8689C82.6377 45.8759 82.8723 45.8794 83.0893 45.8794C83.1105 45.8794 83.1193 45.8601 83.1193 45.8182C83.1193 45.7763 83.1087 45.7571 83.0893 45.7571C82.7841 45.7571 82.5566 45.7361 82.4032 45.6959C82.2515 45.6558 82.1509 45.5841 82.1033 45.4793C82.0557 45.3745 82.0327 45.2225 82.0327 45.0216V40.4235C82.0327 40.2296 82.0486 40.0846 82.0839 39.9903C82.1174 39.8959 82.1791 39.8348 82.2673 39.8033C82.3555 39.7736 82.4772 39.7579 82.6325 39.7579C82.9305 39.7579 83.1828 39.8226 83.3892 39.9536C83.5955 40.0846 83.756 40.2733 83.8725 40.5214C83.9871 40.7694 84.0453 41.0717 84.0453 41.4263C84.0453 41.8019 83.9853 42.1146 83.8672 42.3627C83.749 42.6107 83.5938 42.7959 83.405 42.9165C83.2145 43.037 83.0082 43.0982 82.7859 43.0982C82.7383 43.0982 82.6801 43.0947 82.613 43.0877C82.546 43.0807 82.4843 43.0702 82.4296 43.058C82.4032 43.051 82.3855 43.0702 82.3785 43.1139C82.3714 43.1576 82.3785 43.182 82.3996 43.189C82.4808 43.2082 82.5637 43.2222 82.6483 43.2292C82.733 43.2362 82.8124 43.2397 82.8865 43.2397C83.151 43.2397 83.4156 43.1977 83.6784 43.1139C83.9413 43.03 84.1847 42.906 84.4052 42.7418C84.6256 42.5776 84.8003 42.3679 84.929 42.1129C85.0578 41.8578 85.1178 41.5556 85.1125 41.2079C85.0984 40.8131 84.9978 40.4934 84.8073 40.2523C84.6168 40.0112 84.3611 39.8348 84.04 39.7247V39.7282Z" fill="#070707"/>
<path d="M90.8204 44.1308C90.7868 44.1238 90.7657 44.1308 90.7586 44.1517C90.6493 44.5937 90.4305 44.9501 90.0989 45.2174C89.7673 45.4864 89.3599 45.6192 88.8801 45.6192H88.2698C88.0863 45.6192 87.9488 45.6052 87.8535 45.579C87.7583 45.5528 87.6948 45.4952 87.6612 45.4078C87.6277 45.3205 87.6101 45.1929 87.6101 45.0252V40.4167C87.6101 40.2227 87.6277 40.0742 87.6665 39.9747C87.7036 39.8733 87.7777 39.8052 87.8906 39.7685C88.0017 39.7318 88.1657 39.7126 88.3827 39.7126C88.4021 39.7126 88.4127 39.6934 88.4127 39.6515C88.4127 39.6095 88.4021 39.5903 88.3827 39.5903C88.2204 39.5903 88.0317 39.5956 87.8182 39.6061C87.6048 39.6165 87.372 39.6218 87.1233 39.6218C86.8869 39.6218 86.6594 39.6165 86.4424 39.6061C86.2254 39.5956 86.0367 39.5903 85.8727 39.5903C85.8586 39.5903 85.8533 39.6095 85.8533 39.6515C85.8533 39.6934 85.8603 39.7126 85.8727 39.7126C86.0896 39.7126 86.2537 39.7318 86.3648 39.7685C86.4759 39.8052 86.5518 39.8733 86.5888 39.9694C86.6258 40.0673 86.6453 40.2123 86.6453 40.4062V45.0636C86.6453 45.2576 86.6258 45.4061 86.5888 45.5056C86.5518 45.607 86.4777 45.6733 86.3648 45.7065C86.2537 45.7397 86.0879 45.7572 85.8727 45.7572C85.8586 45.7572 85.8533 45.7764 85.8533 45.8183C85.8533 45.8603 85.8603 45.8795 85.8727 45.8795H90.6263C90.7286 45.8795 90.778 45.8288 90.778 45.7292C90.778 45.4812 90.7886 45.2104 90.808 44.9186C90.8274 44.6269 90.8486 44.3771 90.8697 44.1692C90.8697 44.15 90.8521 44.136 90.8186 44.129L90.8204 44.1308Z" fill="#070707"/>
<path d="M96.3678 44.1308C96.3343 44.1238 96.3132 44.1308 96.3061 44.1517C96.1967 44.5937 95.978 44.9501 95.6464 45.2174C95.3148 45.4864 94.9074 45.6192 94.4276 45.6192H93.8173C93.6338 45.6192 93.4963 45.6052 93.401 45.579C93.3058 45.5528 93.2422 45.4952 93.2087 45.4078C93.1752 45.3205 93.1576 45.1929 93.1576 45.0252V40.4167C93.1576 40.2227 93.1752 40.0742 93.214 39.9747C93.2511 39.8733 93.3251 39.8052 93.438 39.7685C93.5492 39.7318 93.7132 39.7126 93.9302 39.7126C93.9496 39.7126 93.9601 39.6934 93.9601 39.6515C93.9601 39.6095 93.9496 39.5903 93.9302 39.5903C93.7679 39.5903 93.5792 39.5956 93.3657 39.6061C93.1523 39.6165 92.9195 39.6218 92.6708 39.6218C92.4344 39.6218 92.2069 39.6165 91.9899 39.6061C91.7729 39.5956 91.5842 39.5903 91.4202 39.5903C91.406 39.5903 91.4008 39.6095 91.4008 39.6515C91.4008 39.6934 91.4078 39.7126 91.4202 39.7126C91.6371 39.7126 91.8012 39.7318 91.9123 39.7685C92.0234 39.8052 92.0993 39.8733 92.1363 39.9694C92.1733 40.0673 92.1927 40.2123 92.1927 40.4062V45.0636C92.1927 45.2576 92.1733 45.4061 92.1363 45.5056C92.0993 45.607 92.0252 45.6733 91.9123 45.7065C91.8012 45.7397 91.6354 45.7572 91.4202 45.7572C91.406 45.7572 91.4008 45.7764 91.4008 45.8183C91.4008 45.8603 91.4078 45.8795 91.4202 45.8795H96.1738C96.2761 45.8795 96.3255 45.8288 96.3255 45.7292C96.3255 45.4812 96.3361 45.2104 96.3555 44.9186C96.3749 44.6269 96.3961 44.3771 96.4172 44.1692C96.4172 44.15 96.3996 44.136 96.3661 44.129L96.3678 44.1308Z" fill="#070707"/>
<path d="M102.949 44.0958C102.915 44.0853 102.891 44.0958 102.878 44.1202C102.635 44.7037 102.339 45.1317 101.989 45.4025C101.64 45.6733 101.243 45.8096 100.795 45.8096C100.43 45.8096 100.091 45.7222 99.7792 45.5475C99.467 45.3728 99.1971 45.1317 98.966 44.8225C98.735 44.5133 98.5568 44.1552 98.4281 43.7464C98.2993 43.3376 98.2358 42.8973 98.2358 42.4291C98.2358 41.8928 98.3258 41.4211 98.5057 41.0158C98.6856 40.6105 98.9431 40.2926 99.2783 40.0655C99.6134 39.8384 100.021 39.7231 100.502 39.7231C101.037 39.7231 101.503 39.8611 101.899 40.1353C102.296 40.4096 102.593 40.8097 102.788 41.332C102.802 41.3582 102.824 41.367 102.854 41.3565C102.884 41.346 102.899 41.3355 102.899 41.3215L102.778 40.0131C102.771 39.9397 102.758 39.8873 102.743 39.8576C102.725 39.8279 102.686 39.8017 102.626 39.7825C102.43 39.6811 102.166 39.606 101.834 39.5553C101.503 39.5047 101.19 39.4802 100.899 39.4802C100.412 39.4802 99.9432 39.5553 99.4917 39.7073C99.0419 39.8576 98.6397 40.0742 98.2869 40.3555C97.9342 40.6367 97.6555 40.9756 97.4491 41.3722C97.2427 41.7688 97.1387 42.2108 97.1387 42.6999C97.1387 43.0755 97.2075 43.4581 97.3468 43.8477C97.4862 44.2373 97.7013 44.5937 97.9924 44.9186C98.2834 45.2435 98.6627 45.5056 99.1301 45.703C99.5975 45.9004 100.157 46 100.806 46C101.111 46 101.421 45.972 101.741 45.9144C102.058 45.8567 102.374 45.7694 102.686 45.6471C102.748 45.6209 102.787 45.5947 102.802 45.572C102.82 45.5493 102.834 45.4969 102.848 45.4165L103 44.129C103 44.115 102.982 44.1045 102.949 44.094V44.0958Z" fill="#070707"/>
<path d="M52.7858 20.3402C52.6253 20.3402 52.4753 20.2912 52.3325 20.1952C52.1896 20.0991 52.0397 19.9296 51.8791 19.6868C51.7186 19.4457 51.537 19.112 51.3323 18.691L48.0692 12.173C48.0603 12.1468 48.0251 12.1328 47.9633 12.1328C47.9016 12.1328 47.861 12.1468 47.8434 12.173L44.9789 18.5722C44.7742 19.0387 44.5873 19.402 44.4197 19.6606C44.2504 19.9209 44.0793 20.0973 43.9064 20.1952C43.7336 20.2912 43.5272 20.3402 43.2873 20.3402C43.252 20.3402 43.2344 20.3664 43.2344 20.4188C43.2344 20.4712 43.252 20.4974 43.2873 20.4974C43.5801 20.4974 43.827 20.4887 44.0264 20.4712C44.2257 20.4537 44.4955 20.445 44.8324 20.445C45.1694 20.445 45.4498 20.4537 45.6721 20.4712C45.8943 20.4887 46.1377 20.4974 46.4041 20.4974C46.4482 20.4974 46.4711 20.4712 46.4711 20.4188C46.4711 20.3664 46.4482 20.3402 46.4041 20.3402C45.8802 20.3402 45.5098 20.1987 45.2911 19.9174C45.0741 19.6361 45.0794 19.2273 45.3105 18.691L46.3335 16.4077H48.7518L50.1858 19.2972C50.3993 19.7112 50.4663 19.9873 50.3851 20.1288C50.3058 20.2703 50.0659 20.3402 49.6655 20.3402C49.6302 20.3402 49.6126 20.3664 49.6126 20.4188C49.6126 20.4712 49.6302 20.4974 49.6655 20.4974C49.9318 20.4974 50.1735 20.4887 50.3922 20.4712C50.6092 20.4537 50.8649 20.445 51.1577 20.445C51.4152 20.445 51.6834 20.4537 51.9638 20.4712C52.2443 20.4887 52.5159 20.4974 52.784 20.4974C52.8193 20.4974 52.8369 20.4712 52.8369 20.4188C52.8369 20.3664 52.8193 20.3402 52.784 20.3402H52.7858ZM46.4887 16.0653L47.4818 13.8484L48.5825 16.0653H46.4887Z" fill="#070707"/>
<path d="M59.7001 18.2019C59.656 18.1931 59.6295 18.2019 59.6207 18.2281C59.4779 18.8081 59.1903 19.2745 58.7547 19.6274C58.319 19.9786 57.7863 20.155 57.1566 20.155H56.3575C56.1177 20.155 55.936 20.1375 55.8107 20.1026C55.6855 20.0677 55.6026 19.9925 55.5567 19.879C55.5109 19.7654 55.4897 19.5977 55.4897 19.3776V13.3348C55.4897 13.0797 55.5144 12.8858 55.562 12.7548C55.6114 12.622 55.7084 12.5329 55.8548 12.484C56.0012 12.4351 56.2164 12.4124 56.5004 12.4124C56.5269 12.4124 56.541 12.3862 56.541 12.3337C56.541 12.2813 56.5269 12.2551 56.5004 12.2551C56.287 12.2551 56.0401 12.2621 55.7614 12.2743C55.4827 12.2866 55.1775 12.2936 54.8494 12.2936C54.539 12.2936 54.2409 12.2866 53.9569 12.2743C53.6729 12.2604 53.4242 12.2551 53.2108 12.2551C53.1931 12.2551 53.1843 12.2813 53.1843 12.3337C53.1843 12.3862 53.1931 12.4124 53.2108 12.4124C53.4948 12.4124 53.71 12.4368 53.8564 12.484C54.0028 12.5329 54.0998 12.6202 54.1492 12.7478C54.1986 12.8753 54.2215 13.0675 54.2215 13.3225V19.4318C54.2215 19.6868 54.1968 19.8807 54.1492 20.0118C54.0998 20.1445 54.0028 20.2319 53.8564 20.2755C53.71 20.3192 53.4948 20.3419 53.2108 20.3419C53.1931 20.3419 53.1843 20.3681 53.1843 20.4205C53.1843 20.473 53.1931 20.4992 53.2108 20.4992H59.4461C59.5784 20.4992 59.6454 20.4328 59.6454 20.3018C59.6454 19.9768 59.6595 19.6222 59.686 19.2396C59.7124 18.857 59.7389 18.5286 59.7654 18.256C59.7654 18.2298 59.7424 18.2124 59.6983 18.2036L59.7001 18.2019Z" fill="#070707"/>
<path d="M103 50.0808H0V50.8862H103V50.0808Z" fill="#070707"/>
<path d="M29.2733 57.9581H28.8835C28.8376 57.9581 28.8023 57.9476 28.7741 57.9249C28.7459 57.9022 28.7247 57.8742 28.7124 57.8393L28.3631 56.9466H26.6892L26.34 57.8393C26.3276 57.8707 26.3065 57.8969 26.2782 57.9214C26.2482 57.9458 26.213 57.9581 26.1689 57.9581H25.7791L27.2713 54.2632H27.7846L29.2768 57.9581H29.2733ZM26.8286 56.5867H28.222L27.6364 55.0843C27.5976 54.9917 27.5606 54.8764 27.5235 54.7366C27.5041 54.8065 27.4865 54.8711 27.4671 54.9305C27.4477 54.9899 27.4318 55.0423 27.4142 55.086L26.8286 56.5867Z" fill="#070707"/>
<path d="M32.0972 54.2632V54.6842H30.8925V57.9581H30.388V54.6842H29.178V54.2632H32.099H32.0972Z" fill="#070707"/>
<path d="M35.3252 54.2632V54.6842H34.1205V57.9581H33.616V54.6842H32.406V54.2632H35.327H35.3252Z" fill="#070707"/>
<path d="M39.2234 56.1131C39.2234 56.3892 39.1793 56.6442 39.0911 56.8748C39.0029 57.1054 38.8777 57.3046 38.7154 57.4723C38.5531 57.6383 38.3591 57.7675 38.1333 57.8601C37.9075 57.9527 37.6571 57.9981 37.3819 57.9981C37.1067 57.9981 36.858 57.9527 36.6323 57.8601C36.4065 57.7675 36.2125 57.6383 36.0519 57.4723C35.8914 57.3063 35.7662 57.1072 35.6762 56.8748C35.588 56.6442 35.5439 56.3892 35.5439 56.1131C35.5439 55.8371 35.588 55.5821 35.6762 55.3515C35.7644 55.1209 35.8897 54.9217 36.0519 54.754C36.2142 54.5863 36.4065 54.457 36.6323 54.3627C36.858 54.2701 37.1085 54.2229 37.3819 54.2229C37.6553 54.2229 37.9058 54.2701 38.1333 54.3627C38.3591 54.4552 38.5531 54.5863 38.7154 54.754C38.8759 54.9217 39.0011 55.1209 39.0911 55.3515C39.1793 55.5821 39.2234 55.8371 39.2234 56.1131ZM38.7048 56.1131C38.7048 55.886 38.6731 55.6834 38.6113 55.5017C38.5496 55.3218 38.4596 55.168 38.3467 55.044C38.2321 54.9199 38.0928 54.8239 37.9305 54.7557C37.7682 54.6893 37.5848 54.6544 37.3837 54.6544C37.1826 54.6544 37.0027 54.6876 36.8404 54.7557C36.6781 54.8221 36.5388 54.9182 36.4224 55.044C36.3077 55.168 36.2177 55.3218 36.156 55.5017C36.0943 55.6816 36.0625 55.886 36.0625 56.1131C36.0625 56.3403 36.0943 56.5429 36.156 56.7228C36.2177 56.9028 36.3077 57.0548 36.4224 57.1788C36.537 57.3028 36.6764 57.3989 36.8404 57.4653C37.0027 57.5317 37.1844 57.5649 37.3837 57.5649C37.583 57.5649 37.7664 57.5317 37.9305 57.4653C38.0928 57.3989 38.2321 57.3046 38.3467 57.1788C38.4614 57.0548 38.5496 56.9028 38.6113 56.7228C38.6731 56.5429 38.7048 56.3403 38.7048 56.1131Z" fill="#070707"/>
<path d="M40.6238 56.4172V57.9598H40.1211V54.2649H41.1759C41.4123 54.2649 41.6151 54.2894 41.788 54.3365C41.9608 54.3837 42.1019 54.4518 42.2131 54.5409C42.3242 54.63 42.4071 54.7383 42.4618 54.8641C42.5164 54.9899 42.5429 55.1314 42.5429 55.2886C42.5429 55.4197 42.5217 55.5419 42.4812 55.6555C42.4388 55.769 42.3789 55.8704 42.2995 55.9612C42.2201 56.0521 42.1249 56.1289 42.0102 56.1918C41.8973 56.2547 41.7686 56.3036 41.6239 56.3368C41.6857 56.3735 41.7421 56.4259 41.7897 56.4941L42.878 57.9615H42.43C42.3383 57.9615 42.2695 57.9266 42.2272 57.8567L41.2588 56.536C41.2288 56.494 41.1971 56.4643 41.1618 56.4469C41.1265 56.4294 41.0754 56.4189 41.0048 56.4189H40.622L40.6238 56.4172ZM40.6238 56.0538H41.153C41.3011 56.0538 41.4299 56.0363 41.5428 56.0014C41.6539 55.9665 41.7492 55.9158 41.8232 55.8512C41.8991 55.7865 41.9555 55.7097 41.9943 55.6206C42.0331 55.5315 42.0508 55.4319 42.0508 55.3236C42.0508 55.1034 41.9767 54.9375 41.8303 54.8257C41.6839 54.7139 41.4652 54.658 41.1759 54.658H40.6238V56.0521V56.0538Z" fill="#070707"/>
<path d="M43.9383 54.2807C43.9594 54.2911 43.9841 54.3138 44.0123 54.3488L46.1731 57.1335C46.1678 57.0881 46.1643 57.0461 46.1625 57.0025C46.1607 56.9605 46.1607 56.9204 46.1607 56.8802V54.2632H46.6035V57.9581H46.3477C46.3071 57.9581 46.2736 57.9511 46.2472 57.9371C46.2207 57.9231 46.1943 57.9004 46.1678 57.8672L44.0106 55.086C44.0141 55.1297 44.0159 55.1716 44.0176 55.2118C44.0194 55.252 44.0194 55.2904 44.0194 55.3254V57.9581H43.5767V54.2632H43.8377C43.8836 54.2632 43.9153 54.2684 43.9383 54.2807Z" fill="#070707"/>
<path d="M49.969 54.263V54.67H48.1787V55.8964H49.6286V56.2877H48.1787V57.5491H49.969V57.9561H47.6707V54.2612H49.969V54.263Z" fill="#070707"/>
<path d="M52.2884 56.4888V57.9581H51.7857V56.4888L50.4187 54.2632H50.8614C50.9073 54.2632 50.9426 54.2737 50.969 54.2964C50.9955 54.3191 51.0184 54.347 51.0361 54.3785L51.8898 55.8145C51.9251 55.8739 51.9533 55.9316 51.9762 55.984C51.9991 56.0364 52.0203 56.0905 52.0397 56.1412C52.0591 56.0888 52.0803 56.0346 52.1014 55.9822C52.1244 55.9298 52.1526 55.8739 52.1879 55.8145L53.0398 54.3785C53.0557 54.3505 53.0769 54.3243 53.1033 54.2999C53.1298 54.2754 53.1651 54.2632 53.2092 54.2632H53.6572L52.2884 56.4888Z" fill="#070707"/>
<path d="M56.1918 54.8413C56.1759 54.8675 56.16 54.8867 56.1424 54.8989C56.1247 54.9111 56.1018 54.9181 56.0753 54.9181C56.0453 54.9181 56.0118 54.9041 55.973 54.8744C55.9342 54.8448 55.8848 54.8133 55.8249 54.7784C55.7649 54.7434 55.6926 54.7102 55.6079 54.6823C55.5232 54.6526 55.4209 54.6386 55.3028 54.6386C55.1899 54.6386 55.0893 54.6543 55.0029 54.684C54.9165 54.7137 54.8441 54.7557 54.7859 54.8063C54.7277 54.8587 54.6836 54.9181 54.6536 54.988C54.6237 55.0579 54.6096 55.133 54.6096 55.2134C54.6096 55.3164 54.6342 55.402 54.6854 55.4702C54.7365 55.5383 54.8036 55.596 54.8882 55.6449C54.9729 55.6938 55.0682 55.734 55.174 55.7707C55.2798 55.8056 55.3892 55.8423 55.5021 55.8807C55.6132 55.9191 55.7226 55.9611 55.8302 56.0082C55.9377 56.0554 56.033 56.1148 56.1159 56.1882C56.1988 56.2616 56.2676 56.3489 56.3188 56.4537C56.3699 56.5585 56.3946 56.6878 56.3946 56.8398C56.3946 57.0005 56.3664 57.1525 56.3117 57.2958C56.2552 57.4373 56.1759 57.5613 56.0683 57.6661C55.9607 57.771 55.8302 57.8531 55.6749 57.9142C55.5197 57.9736 55.3433 58.0051 55.1458 58.0051C54.9041 58.0051 54.6854 57.9614 54.4861 57.874C54.2868 57.7867 54.1174 57.6696 53.9763 57.5229L54.1227 57.2853C54.1368 57.2661 54.1527 57.2504 54.1739 57.2381C54.1933 57.2259 54.2162 57.2189 54.2409 57.2189C54.2779 57.2189 54.3185 57.2381 54.3661 57.2766C54.4138 57.315 54.472 57.3587 54.5425 57.4041C54.6131 57.4495 54.6977 57.4932 54.7983 57.5316C54.8988 57.5701 55.0205 57.5893 55.1634 57.5893C55.2833 57.5893 55.3892 57.5735 55.4844 57.5404C55.5797 57.5072 55.6573 57.4617 55.7226 57.4023C55.7878 57.3429 55.8372 57.2713 55.8725 57.1892C55.9078 57.1071 55.9254 57.0145 55.9254 56.9132C55.9254 56.8014 55.9007 56.7105 55.8496 56.6389C55.7984 56.5673 55.7314 56.5079 55.6485 56.459C55.5656 56.4101 55.4703 56.3699 55.3627 56.3367C55.2569 56.3035 55.1475 56.2686 55.0346 56.2336C54.9235 56.1987 54.8142 56.1585 54.7066 56.1113C54.599 56.0642 54.5055 56.0048 54.4208 55.9314C54.3379 55.858 54.2709 55.7654 54.2197 55.6536C54.1686 55.5418 54.1439 55.4055 54.1439 55.2431C54.1439 55.112 54.1686 54.9863 54.2197 54.864C54.2709 54.7417 54.345 54.6334 54.442 54.539C54.539 54.4447 54.6589 54.3696 54.8018 54.3119C54.9447 54.256 55.1087 54.2263 55.2957 54.2263C55.5038 54.2263 55.6943 54.2595 55.8654 54.3241C56.0365 54.3888 56.1865 54.4849 56.3152 54.6072L56.1935 54.8448L56.1918 54.8413Z" fill="#070707"/>
<path d="M61.4271 57.9581H61.0373C60.9914 57.9581 60.9562 57.9476 60.9279 57.9249C60.8997 57.9022 60.8785 57.8742 60.8662 57.8393L60.5169 56.9466H58.843L58.4938 57.8393C58.4814 57.8707 58.4603 57.8969 58.432 57.9214C58.4021 57.9458 58.3668 57.9581 58.3227 57.9581H57.9329L59.4251 54.2632H59.9384L61.4306 57.9581H61.4271ZM58.9824 56.5867H60.3758L59.7902 55.0843C59.7514 54.9917 59.7144 54.8764 59.6773 54.7366C59.6579 54.8065 59.6403 54.8711 59.6209 54.9305C59.6015 54.9899 59.5856 55.0423 59.568 55.086L58.9824 56.5867Z" fill="#070707"/>
<path d="M64.251 54.2632V54.6842H63.0463V57.9581H62.5418V54.6842H61.3318V54.2632H64.2528H64.251Z" fill="#070707"/>
<path d="M66.6041 57.5387H68.218V57.9598H66.0996V54.2649H66.6041V57.5387Z" fill="#070707"/>
<path d="M72.0016 57.9581H71.6117C71.5659 57.9581 71.5306 57.9476 71.5024 57.9249C71.4742 57.9022 71.453 57.8742 71.4407 57.8393L71.0914 56.9466H69.4175L69.0682 57.8393C69.0559 57.8707 69.0347 57.8969 69.0065 57.9214C68.9765 57.9458 68.9412 57.9581 68.8971 57.9581H68.5073L69.9996 54.2632H70.5129L72.0051 57.9581H72.0016ZM69.5568 56.5867H70.9503L70.3647 55.0843C70.3259 54.9917 70.2888 54.8764 70.2518 54.7366C70.2324 54.8065 70.2148 54.8711 70.1954 54.9305C70.176 54.9899 70.1601 55.0423 70.1424 55.086L69.5568 56.5867Z" fill="#070707"/>
<path d="M71.9928 54.2632H72.4126C72.4584 54.2632 72.4955 54.2737 72.5237 54.2964C72.5537 54.3191 72.5731 54.347 72.5837 54.382L73.3545 56.9501C73.3686 56.9972 73.381 57.0461 73.3915 57.1003C73.4021 57.1545 73.4145 57.2086 73.4233 57.268C73.4356 57.2104 73.448 57.1527 73.4603 57.0985C73.4727 57.0444 73.4868 56.9955 73.5027 56.9501L74.3793 54.382C74.3899 54.3523 74.4093 54.3261 74.441 54.3016C74.471 54.2772 74.5081 54.2649 74.5522 54.2649H74.6986C74.7444 54.2649 74.7815 54.2754 74.8097 54.2981C74.8379 54.3208 74.8591 54.3488 74.8714 54.3837L75.7428 56.9518C75.7745 57.0409 75.801 57.144 75.8257 57.2593C75.8363 57.2034 75.8451 57.1475 75.8539 57.0968C75.8627 57.0444 75.8733 56.9972 75.8874 56.9518L76.66 54.3837C76.6688 54.3523 76.6882 54.3261 76.7182 54.3016C76.7482 54.2772 76.7852 54.2649 76.8293 54.2649H77.2227L76.0585 57.9598H75.6052L74.6598 55.1419C74.6404 55.0895 74.6227 55.0266 74.6069 54.9567C74.598 54.9917 74.5892 55.0249 74.5822 55.0563C74.5751 55.0878 74.5663 55.1175 74.5575 55.1419L73.6067 57.9598H73.1534L71.9893 54.2649L71.9928 54.2632Z" fill="#070707"/>
</g>
<defs>
<clipPath id="clip0_1_240">
<rect width="103" height="58" fill="white"/>
</clipPath>
</defs>
</svg>
