<svg width="32" height="32" viewBox="0 0 32 32" fill="none" xmlns="http://www.w3.org/2000/svg">
<path d="M21.3333 7.99996V10.6666M21.3333 10.6666V13.3333M21.3333 10.6666H18.6667M21.3333 10.6666H24M24.7016 25.1273C20.6554 26.6146 15.1631 25.0951 11.0386 20.9706C6.91408 16.846 5.39452 11.3537 6.88188 7.30752C7.54323 5.50837 9.80885 5.41252 11.2803 6.64098L12.5099 7.66751C13.5202 8.51101 13.5889 10.0397 12.6582 10.9704C11.9989 11.6297 11.8157 12.6292 12.2541 13.4521C12.867 14.6027 13.8166 16.2061 14.8098 17.1993C15.8031 18.1926 17.4065 19.1421 18.557 19.755C19.38 20.1934 20.3794 20.0103 21.0387 19.3509C21.9694 18.4203 23.4981 18.4889 24.3416 19.4993L25.3682 20.7288C26.5966 22.2003 26.5008 24.4659 24.7016 25.1273Z" stroke="#070707" stroke-width="1.5" stroke-linecap="round" stroke-linejoin="round"/>
</svg>
